<?xml version="1.0" encoding="UTF-8" standalone="no"?>
<!-- Created with Inkscape (http://www.inkscape.org/) -->

<svg
   xmlns:osb="http://www.openswatchbook.org/uri/2009/osb"
   xmlns:dc="http://purl.org/dc/elements/1.1/"
   xmlns:cc="http://creativecommons.org/ns#"
   xmlns:rdf="http://www.w3.org/1999/02/22-rdf-syntax-ns#"
   xmlns:svg="http://www.w3.org/2000/svg"
   xmlns="http://www.w3.org/2000/svg"
   xmlns:xlink="http://www.w3.org/1999/xlink"
   xmlns:sodipodi="http://sodipodi.sourceforge.net/DTD/sodipodi-0.dtd"
   xmlns:inkscape="http://www.inkscape.org/namespaces/inkscape"
   width="1407.866"
   height="419.15701"
   viewBox="0 0 1407.8659 419.15702"
   id="svg2"
   version="1.1"
   inkscape:version="0.91 r13725"
   sodipodi:docname="validus.svg"
   style="enable-background:new">
  <defs
     id="defs4">
    <linearGradient
       id="linearGradient6547"
       osb:paint="solid">
      <stop
         style="stop-color:#7e0000;stop-opacity:1;"
         offset="0"
         id="stop6549" />
    </linearGradient>
    <linearGradient
       inkscape:collect="always"
       id="linearGradient6456">
      <stop
         style="stop-color:#ff0000;stop-opacity:1;"
         offset="0"
         id="stop6458" />
      <stop
         style="stop-color:#800000;stop-opacity:1"
         offset="1"
         id="stop6460" />
    </linearGradient>
    <linearGradient
       id="linearGradient6418"
       osb:paint="solid">
      <stop
         style="stop-color:#800000;stop-opacity:1;"
         offset="0"
         id="stop6420" />
    </linearGradient>
    <linearGradient
       inkscape:collect="always"
       xlink:href="#linearGradient6456"
       id="linearGradient6462-1-4"
       x1="335.71429"
       y1="273.79077"
       x2="348.57144"
       y2="510.93365"
       gradientUnits="userSpaceOnUse"
       gradientTransform="translate(-166.67356,2352.9504)" />
  </defs>
  <sodipodi:namedview
     id="base"
     pagecolor="#ffffff"
     bordercolor="#666666"
     borderopacity="1.0"
     inkscape:pageopacity="0.0"
     inkscape:pageshadow="2"
     inkscape:zoom="0.70000002"
     inkscape:cx="545.72874"
     inkscape:cy="168.71449"
     inkscape:document-units="px"
     inkscape:current-layer="layer4"
     showgrid="false"
     showguides="true"
     inkscape:window-width="1920"
     inkscape:window-height="1016"
     inkscape:window-x="0"
     inkscape:window-y="0"
     inkscape:window-maximized="1"
     units="px" />
  <metadata
     id="metadata7">
    <rdf:RDF>
      <cc:Work
         rdf:about="">
        <dc:format>image/svg+xml</dc:format>
        <dc:type
           rdf:resource="http://purl.org/dc/dcmitype/StillImage" />
        <dc:title></dc:title>
      </cc:Work>
    </rdf:RDF>
  </metadata>
  <g
     inkscape:label="Livello 2 copia"
     id="g4165"
     inkscape:groupmode="layer"
     style="display:inline;opacity:1"
     transform="translate(0,-633.20484)">
    <g
       id="text4142"
       style="font-style:normal;font-weight:normal;font-size:253.98458862px;line-height:125%;font-family:sans-serif;letter-spacing:0px;word-spacing:0px;opacity:1;fill:#ff0000;fill-opacity:1;stroke:none;stroke-width:1px;stroke-linecap:butt;stroke-linejoin:miter;stroke-opacity:1"
       transform="scale(0.74000606,1.3513403)" />
    <g
       id="text4167"
       style="font-style:normal;font-weight:normal;font-size:253.98458862px;line-height:125%;font-family:sans-serif;letter-spacing:0px;word-spacing:0px;fill:#ff0000;fill-opacity:1;stroke:none;stroke-width:1px;stroke-linecap:butt;stroke-linejoin:miter;stroke-opacity:1"
       transform="scale(0.74000606,1.3513403)" />
  </g>
  <g
     inkscape:groupmode="layer"
     id="layer7"
     inkscape:label="Livello 2 copia 2"
     transform="translate(0,-633.20484)" />
  <g
     inkscape:groupmode="layer"
     id="layer3"
     inkscape:label="Livello 2 copia 1"
     style="display:inline"
     transform="translate(0,-633.20484)" />
  <g
     inkscape:groupmode="layer"
     id="layer5"
     inkscape:label="Livello 2 copia 3"
     style="display:inline"
     transform="translate(0,-633.20484)" />
  <g
     inkscape:groupmode="layer"
     id="layer6"
     inkscape:label="Livello 2 copia 4"
     transform="translate(0,-633.20484)"
     style="display:inline;opacity:1" />
  <g
     inkscape:groupmode="layer"
     id="layer2"
     inkscape:label="Livello 2 copia 5"
     transform="translate(0,-2560.764)" />
  <g
     inkscape:groupmode="layer"
     id="layer4"
     inkscape:label="Livello 2 copia 6"
     transform="translate(0,-2560.764)">
    <path
       style="display:inline;opacity:1;fill:url(#linearGradient6462-1-4);fill-opacity:1;fill-rule:nonzero;stroke:none;stroke-width:5.4000001;stroke-linejoin:bevel;stroke-miterlimit:4;stroke-dasharray:none;stroke-opacity:1"
       d="m 43.438144,2561.3785 0,0 -1.05078,0.3848 c -62.40792,56.1293 -50.1819198,319.3302 1.05074,328.6149 l 0.44141,0 c 1.06511,0.046 2.14831,0.078 3.26758,0.078 l 5.689451,0 0,-0.078 293.408215,0 0,0.078 5.78125,0 c 15.2343,0 25.39072,-4.2932 30.46882,-12.877 4.8854,-8.16 7.4423,-24.0402 7.6836,-47.6094 -1.6403,7.9289 -41.55375,3.5762 -50.85164,3.5762 17.6143,-54.6283 50.99154,-111.5848 50.87704,-166.1543 l 0,-34.9394 0,-6.8204 c 174.2856,-65.3143 -0.2611,-15.4711 -0.7833,-21.8984 -1.116,-13.7363 -3.4246,-23.4891 -6.9257,-29.2578 -4.8066,-8.1249 -14.17045,-12.3976 -28.07625,-12.832 l -0.61132,-0.2676 -310.369156,0 z m 346.765686,223.289 c -0.045,12.4348 0.1341,24.8708 -0.025,37.3047 l 10.9277,-23.2871 77.1621,0 12.0469,34.8633 49.6035,0 -70.8789,-191.3633 -58.832,0 c -13.1565,53.2002 -18.9032,107.9513 -20.0043,142.4824 z m 937.47067,-145.9433 c -23.0713,0 -40.7579,5.1269 -53.0625,15.3808 -12.3047,10.254 -18.4571,24.9097 -18.4571,43.9649 0,15.2099 4.3999,27.2993 13.2012,36.2715 8.8867,8.9721 22.9004,15.5097 42.041,19.6113 l 19.0977,4.2305 c 11.6211,2.5634 19.354,5.4678 23.1992,8.7148 3.9306,3.2471 5.8965,7.8623 5.8965,13.8438 0,6.665 -2.8628,11.792 -8.5879,15.3808 -5.7251,3.5889 -13.9697,5.3828 -24.7364,5.3828 -10.5957,0 -21.6201,-1.624 -33.0703,-4.8711 -11.3647,-3.3325 -23.1557,-8.246 -35.375,-14.7402 l 0,41.6563 c 12.2193,4.5288 24.439,7.9467 36.6582,10.2539 12.2193,2.3071 24.3955,3.4609 36.5293,3.4609 25.7203,0 44.8174,-5.1269 57.293,-15.3809 12.561,-10.3393 18.8418,-26.062 18.8418,-47.1679 0,-16.0645 -4.4868,-28.4541 -13.459,-37.1699 -8.9721,-8.7159 -24.0962,-15.21 -45.373,-19.4825 l -21.0196,-4.2304 c -9.9975,-2.0508 -16.9204,-4.4849 -20.7656,-7.3047 -3.7598,-2.9053 -5.6387,-6.9219 -5.6387,-12.0489 0,-6.8359 2.8194,-11.8779 8.459,-15.125 5.6397,-3.247 14.3565,-4.871 26.1485,-4.871 8.8867,0 18.3286,1.1972 28.3261,3.5898 9.9976,2.3926 20.2515,5.939 30.7618,10.6387 l 0,-40.5039 c -11.8775,-3.1617 -23.3702,-5.5108 -34.4786,-7.0489 -11.1084,-1.6235 -21.9194,-2.4355 -32.4296,-2.4355 z m -762.50587,3.4609 0,191.3633 135.9922,0 0,-37.2988 -86.6446,0 0,-154.0645 z m 167.1387,0 0,191.3633 49.3476,0 0,-191.3633 z m 97.9257,0 0,191.3633 52.0391,0 c 28.7109,0 50.2441,-2.0508 64.5996,-6.1523 14.35547,-4.187 26.66017,-11.2364 36.91407,-21.1485 8.9721,-8.6303 15.6362,-18.5859 19.9941,-29.8652 4.3579,-11.3648 6.5371,-24.2661 6.5371,-38.707 0,-14.2701 -2.1792,-27.045 -6.5371,-38.3243 -4.3579,-11.2793 -11.022,-21.2348 -19.9941,-29.8652 -10.1685,-9.9121 -22.3882,-16.918 -36.65817,-21.0195 -14.1846,-4.187 -35.8028,-6.2813 -64.8555,-6.2813 z m 217.89457,0 0,114.7149 c 0,27.0874 6.7944,47.2534 20.3808,60.498 13.5865,13.2446 34.2642,19.8672 62.0352,19.8672 27.8564,0 48.5776,-6.6226 62.1641,-19.8672 13.5864,-13.2446 20.3808,-33.4106 20.3808,-60.498 l 0,-114.7149 -49.3476,0 0,114.7149 c 0,15.8081 -2.606,27.1308 -7.8184,33.9668 -5.127,6.7505 -13.5869,10.125 -25.3789,10.125 -11.7065,0 -20.1665,-3.3745 -25.3789,-10.125 -5.127,-6.836 -7.6895,-18.1587 -7.6895,-33.9668 l 0,-114.7149 z m -168.54877,37.2989 17.6894,0 c 20.2515,0 35.6738,4.955 46.2695,14.8671 10.59567,9.9122 15.89457,24.3545 15.89457,43.3243 0,19.0551 -5.3404,33.5805 -16.02147,43.5781 -10.5957,9.9975 -25.9766,14.9961 -46.1426,14.9961 l -17.6894,0 z m -439.8926,7.5625 26.1484,76.1347 -52.4238,0 z"
       id="rect4140-9-5"
       inkscape:connector-curvature="0"
       sodipodi:nodetypes="cccccsccccsccccccsccccccccccccccsssccccscscccsscsscccscsscccsccccccccccccccscccssccsccsssssccscscscccssscscccccc"
       inkscape:export-xdpi="15.98"
       inkscape:export-ydpi="15.98" />
    <path
       d="m 243.68402,2797.3306 c -14.92745,20.918 -39.84206,56.0794 -41.83425,56.0794 -1.81641,0 -3.19336,-1.2598 -4.13086,-3.7793 -9.74779,-15.0222 -23.79627,-35.832 -34.75827,-52.9643 -7.48316,-11.6953 -17.18926,-23.3776 -26.80795,-37.2696 -5.21609,-7.5335 -14.96944,-18.3702 -14.96944,-18.3702 -4.38812,-5.0363 -11.13168,-12.2412 -16.69031,-17.1333 -4.35037,-3.8288 -10.199275,-9.4725 -13.034245,-11.5964 -5.92436,-4.4386 -13.75999,-10.5026 -13.75999,-10.5026 8.00402,-10.9782 37.067345,-31.6954 57.064625,-34.244 13.33345,-1.6993 25.76392,6.3009 34.37768,15.0583 5.7334,5.829 9.77587,11.9935 11.26817,15.8564 l 6.95161,13.6378 6.10822,11.9833 13.89405,36.2098 c 123.50791,-148.4139 283.92727,-181.485 280.09507,-171.8189 -2.1833,5.5071 -57.5141,23.8608 -119.70926,74.4013 -17.2801,14.042 -50.7551,46.2617 -61.6926,58.5764 -11.7592,13.2399 -22.0972,25.023 -35.0895,41.247 -7.77002,9.7028 -17.05781,21.4642 -27.28275,34.6289 z"
       style="font-style:normal;font-variant:normal;font-weight:normal;font-stretch:semi-condensed;font-size:180px;line-height:125%;font-family:Symbola;-inkscape-font-specification:'Symbola Semi-Condensed';letter-spacing:0px;word-spacing:0px;display:inline;opacity:1;fill:#ffffff;fill-opacity:1;stroke:none;stroke-width:1px;stroke-linecap:butt;stroke-linejoin:miter;stroke-opacity:1"
       id="path4917-4-6-7"
       inkscape:connector-curvature="0"
       sodipodi:nodetypes="cscssssscssccccssssc"
       inkscape:export-xdpi="15.98"
       inkscape:export-ydpi="15.98" />
    <g
       transform="scale(1.0068692,0.99317767)"
       style="font-style:normal;font-weight:normal;font-size:39.32255936px;line-height:125%;font-family:sans-serif;letter-spacing:0px;word-spacing:0px;display:inline;opacity:1;fill:#aa0000;fill-opacity:1;stroke:none;stroke-width:1px;stroke-linecap:butt;stroke-linejoin:miter;stroke-opacity:1"
       id="text6474-7-1">
      <path
         d="m 68.352341,2925.8821 0,10.0472 q -5.865142,-2.8051 -11.067268,-4.1821 -5.202125,-1.377 -10.047242,-1.377 -8.415204,0 -13.005314,3.264 -4.53911,3.2641 -4.53911,9.2823 0,5.0491 3.009073,7.6501 3.060073,2.5501 11.526278,4.1311 l 6.22215,1.2751 q 11.526279,2.193 16.983411,7.7522 5.508133,5.5081 5.508133,14.7903 0,11.0673 -7.44618,16.7794 -7.395179,5.7122 -21.726525,5.7122 -5.406131,0 -11.526279,-1.2241 -6.069146,-1.224 -12.597304,-3.621 l 0,-10.6083 q 6.273152,3.5191 12.291297,5.3041 6.018145,1.7851 11.832286,1.7851 8.823213,0 13.617329,-3.4681 4.794116,-3.4681 4.794116,-9.8943 0,-5.6101 -3.468084,-8.7722 -3.417083,-3.162 -11.271272,-4.7431 l -6.273152,-1.224 q -11.526278,-2.2951 -16.677403,-7.1912 -5.151124,-4.8961 -5.151124,-13.6173 0,-10.0983 7.089171,-15.9124 7.140172,-5.8141 19.635474,-5.8141 5.35513,0 10.914264,0.969 5.559134,0.969 11.373275,2.9071 z"
         style="font-style:normal;font-variant:normal;font-weight:normal;font-stretch:normal;font-size:104.45052338px;font-family:Symbol;-inkscape-font-specification:Symbol;fill:#aa0000"
         id="path4158" />
      <path
         d="m 119.91459,2930.3702 q -11.22027,0 -17.85043,8.3642 -6.57916,8.3642 -6.57916,22.7975 0,14.3824 6.57916,22.7466 6.63016,8.3642 17.85043,8.3642 11.22027,0 17.74843,-8.3642 6.57916,-8.3642 6.57916,-22.7466 0,-14.4333 -6.57916,-22.7975 -6.52816,-8.3642 -17.74843,-8.3642 z m 0,-8.3642 q 16.01439,0 25.60262,10.7612 9.58823,10.7103 9.58823,28.7647 0,18.0034 -9.58823,28.7647 -9.58823,10.7103 -25.60262,10.7103 -16.06539,0 -25.704621,-10.7103 -9.588232,-10.7102 -9.588232,-28.7647 0,-18.0544 9.588232,-28.7647 9.639231,-10.7612 25.704621,-10.7612 z"
         style="font-style:normal;font-variant:normal;font-weight:normal;font-stretch:normal;font-size:104.45052338px;font-family:Symbol;-inkscape-font-specification:Symbol;fill:#aa0000"
         id="path4160" />
      <path
         d="m 171.22183,2923.383 10.30225,0 0,67.4746 37.0779,0 0,8.6702 -47.38015,0 0,-76.1448 z"
         style="font-style:normal;font-variant:normal;font-weight:normal;font-stretch:normal;font-size:104.45052338px;font-family:Symbol;-inkscape-font-specification:Symbol;fill:#aa0000"
         id="path4162" />
      <path
         d="m 223.09009,2923.383 10.35325,0 0,46.2581 q 0,12.2403 4.43711,17.6464 4.43711,5.3552 14.38235,5.3552 9.89424,0 14.33135,-5.3552 4.4371,-5.4061 4.4371,-17.6464 l 0,-46.2581 10.35325,0 0,47.5331 q 0,14.8924 -7.39518,22.4916 -7.34417,7.5992 -21.72652,7.5992 -14.43335,0 -21.82853,-7.5992 -7.34418,-7.5992 -7.34418,-22.4916 l 0,-47.5331 z"
         style="font-style:normal;font-variant:normal;font-weight:normal;font-stretch:normal;font-size:104.45052338px;font-family:Symbol;-inkscape-font-specification:Symbol;fill:#aa0000"
         id="path4164" />
      <path
         d="m 294.54282,2923.383 59.82444,0 0,7.8542 -48.14516,59.6204 49.31819,0 0,8.6702 -62.1705,0 0,-7.8542 48.14516,-59.6204 -46.97213,0 0,-8.6702 z"
         style="font-style:normal;font-variant:normal;font-weight:normal;font-stretch:normal;font-size:104.45052338px;font-family:Symbol;-inkscape-font-specification:Symbol;fill:#aa0000"
         id="path4166" />
      <path
         d="m 370.53464,2923.383 10.30225,0 0,76.1448 -10.30225,0 0,-76.1448 z"
         style="font-style:normal;font-variant:normal;font-weight:normal;font-stretch:normal;font-size:104.45052338px;font-family:Symbol;-inkscape-font-specification:Symbol;fill:#aa0000"
         id="path4168" />
      <path
         d="m 432.24613,2930.3702 q -11.22027,0 -17.85043,8.3642 -6.57916,8.3642 -6.57916,22.7975 0,14.3824 6.57916,22.7466 6.63016,8.3642 17.85043,8.3642 11.22027,0 17.74843,-8.3642 6.57916,-8.3642 6.57916,-22.7466 0,-14.4333 -6.57916,-22.7975 -6.52816,-8.3642 -17.74843,-8.3642 z m 0,-8.3642 q 16.01439,0 25.60262,10.7612 9.58823,10.7103 9.58823,28.7647 0,18.0034 -9.58823,28.7647 -9.58823,10.7103 -25.60262,10.7103 -16.06539,0 -25.70462,-10.7103 -9.58823,-10.7102 -9.58823,-28.7647 0,-18.0544 9.58823,-28.7647 9.63923,-10.7612 25.70462,-10.7612 z"
         style="font-style:normal;font-variant:normal;font-weight:normal;font-stretch:normal;font-size:104.45052338px;font-family:Symbol;-inkscape-font-specification:Symbol;fill:#aa0000"
         id="path4170" />
      <path
         d="m 483.55338,2923.383 13.87233,0 33.76282,63.7005 0,-63.7005 9.99624,0 0,76.1448 -13.87234,0 -33.76281,-63.7005 0,63.7005 -9.99624,0 0,-76.1448 z"
         style="font-style:normal;font-variant:normal;font-weight:normal;font-stretch:normal;font-size:104.45052338px;font-family:Symbol;-inkscape-font-specification:Symbol;fill:#aa0000"
         id="path4172" />
      <path
         d="m 561.68726,2923.383 10.30224,0 0,76.1448 -10.30224,0 0,-76.1448 z"
         style="font-style:normal;font-variant:normal;font-weight:normal;font-stretch:normal;font-size:104.45052338px;font-family:Symbol;-inkscape-font-specification:Symbol;fill:#aa0000"
         id="path4174" />
      <path
         d="m 625.74481,2923.383 10.30225,0 0,76.1448 -10.30225,0 0,-76.1448 z"
         style="font-style:normal;font-variant:normal;font-weight:normal;font-stretch:normal;font-size:104.45052338px;font-family:Symbol;-inkscape-font-specification:Symbol;fill:#aa0000"
         id="path4176" />
      <path
         d="m 656.54956,2923.383 13.87234,0 33.76281,63.7005 0,-63.7005 9.99624,0 0,76.1448 -13.87233,0 -33.76282,-63.7005 0,63.7005 -9.99624,0 0,-76.1448 z"
         style="font-style:normal;font-variant:normal;font-weight:normal;font-stretch:normal;font-size:104.45052338px;font-family:Symbol;-inkscape-font-specification:Symbol;fill:#aa0000"
         id="path4178" />
      <path
         d="m 734.68347,2923.383 43.75906,0 0,8.6702 -33.45681,0 0,22.4405 30.19273,0 0,8.6703 -30.19273,0 0,36.3638 -10.30225,0 0,-76.1448 z"
         style="font-style:normal;font-variant:normal;font-weight:normal;font-stretch:normal;font-size:104.45052338px;font-family:Symbol;-inkscape-font-specification:Symbol;fill:#aa0000"
         id="path4180" />
      <path
         d="m 825.77168,2930.3702 q -11.22027,0 -17.85044,8.3642 -6.57915,8.3642 -6.57915,22.7975 0,14.3824 6.57915,22.7466 6.63017,8.3642 17.85044,8.3642 11.22027,0 17.74842,-8.3642 6.57916,-8.3642 6.57916,-22.7466 0,-14.4333 -6.57916,-22.7975 -6.52815,-8.3642 -17.74842,-8.3642 z m 0,-8.3642 q 16.01438,0 25.60261,10.7612 9.58824,10.7103 9.58824,28.7647 0,18.0034 -9.58824,28.7647 -9.58823,10.7103 -25.60261,10.7103 -16.06539,0 -25.70462,-10.7103 -9.58824,-10.7102 -9.58824,-28.7647 0,-18.0544 9.58824,-28.7647 9.63923,-10.7612 25.70462,-10.7612 z"
         style="font-style:normal;font-variant:normal;font-weight:normal;font-stretch:normal;font-size:104.45052338px;font-family:Symbol;-inkscape-font-specification:Symbol;fill:#aa0000"
         id="path4182" />
      <path
         d="m 913.18779,2963.827 q 3.31508,1.122 6.42616,4.7941 3.16207,3.6721 6.32415,10.0982 l 10.45525,20.8085 -11.06727,0 -9.74123,-19.5334 q -3.77409,-7.6502 -7.34418,-10.1493 -3.51908,-2.499 -9.63923,-2.499 l -11.22027,0 0,32.1817 -10.30225,0 0,-76.1448 23.25656,0 q 13.05632,0 19.48247,5.4571 6.42616,5.4572 6.42616,16.4734 0,7.1912 -3.36608,11.9343 -3.31508,4.7431 -9.69024,6.5792 z m -25.80662,-31.9778 0,27.0307 12.95431,0 q 7.44618,0 11.22027,-3.4171 3.82509,-3.4681 3.82509,-10.1493 0,-6.6811 -3.82509,-10.0472 -3.77409,-3.4171 -11.22027,-3.4171 l -12.95431,0 z"
         style="font-style:normal;font-variant:normal;font-weight:normal;font-stretch:normal;font-size:104.45052338px;font-family:Symbol;-inkscape-font-specification:Symbol;fill:#aa0000"
         id="path4184" />
      <path
         d="m 949.70465,2923.383 15.35137,0 19.43147,51.8172 19.53351,-51.8172 15.3513,0 0,76.1448 -10.0472,0 0,-66.8626 -19.63548,52.2253 -10.35325,0 -19.63548,-52.2253 0,66.8626 -9.99624,0 0,-76.1448 z"
         style="font-style:normal;font-variant:normal;font-weight:normal;font-stretch:normal;font-size:104.45052338px;font-family:Symbol;-inkscape-font-specification:Symbol;fill:#aa0000"
         id="path4186" />
      <path
         d="m 1065.3244,2933.5322 -13.9743,37.894 27.9997,0 -14.0254,-37.894 z m -5.8141,-10.1492 11.6793,0 29.0197,76.1448 -10.7103,0 -6.9362,-19.5334 -34.3238,0 -6.9361,19.5334 -10.8633,0 29.0707,-76.1448 z"
         style="font-style:normal;font-variant:normal;font-weight:normal;font-stretch:normal;font-size:104.45052338px;font-family:Symbol;-inkscape-font-specification:Symbol;fill:#aa0000"
         id="path4188" />
      <path
         d="m 1092.5591,2923.383 64.4146,0 0,8.6702 -27.0307,0 0,67.4746 -10.3532,0 0,-67.4746 -27.0307,0 0,-8.6702 z"
         style="font-style:normal;font-variant:normal;font-weight:normal;font-stretch:normal;font-size:104.45052338px;font-family:Symbol;-inkscape-font-specification:Symbol;fill:#aa0000"
         id="path4190" />
      <path
         d="m 1166.9699,2923.383 10.3023,0 0,76.1448 -10.3023,0 0,-76.1448 z"
         style="font-style:normal;font-variant:normal;font-weight:normal;font-stretch:normal;font-size:104.45052338px;font-family:Symbol;-inkscape-font-specification:Symbol;fill:#aa0000"
         id="path4192" />
      <path
         d="m 1254.794,2929.2481 0,10.8633 q -5.2022,-4.8451 -11.1183,-7.2422 -5.8651,-2.397 -12.4953,-2.397 -13.0563,0 -19.9925,8.0072 -6.9361,7.9561 -6.9361,23.0525 0,15.0454 6.9361,23.0526 6.9362,7.9562 19.9925,7.9562 6.6302,0 12.4953,-2.3971 5.9161,-2.3971 11.1183,-7.2422 l 0,10.7613 q -5.4062,3.6721 -11.4753,5.5081 -6.0181,1.8361 -12.7503,1.8361 -17.2894,0 -27.2347,-10.5573 -9.9452,-10.6082 -9.9452,-28.9177 0,-18.3604 9.9452,-28.9177 9.9453,-10.6082 27.2347,-10.6082 6.8342,0 12.8523,1.836 6.0691,1.785 11.3733,5.4061 z"
         style="font-style:normal;font-variant:normal;font-weight:normal;font-stretch:normal;font-size:104.45052338px;font-family:Symbol;-inkscape-font-specification:Symbol;fill:#aa0000"
         id="path4194" />
      <path
         d="m 1270.8084,2923.383 10.3023,0 0,31.2127 37.4349,0 0,-31.2127 10.3022,0 0,76.1448 -10.3022,0 0,-36.2618 -37.4349,0 0,36.2618 -10.3023,0 0,-76.1448 z"
         style="font-style:normal;font-variant:normal;font-weight:normal;font-stretch:normal;font-size:104.45052338px;font-family:Symbol;-inkscape-font-specification:Symbol;fill:#aa0000"
         id="path4196" />
      <path
         d="m 1349.3503,2923.383 48.1451,0 0,8.6702 -37.8429,0 0,22.5425 36.2619,0 0,8.6703 -36.2619,0 0,27.5916 38.761,0 0,8.6702 -49.0632,0 0,-76.1448 z"
         style="font-style:normal;font-variant:normal;font-weight:normal;font-stretch:normal;font-size:104.45052338px;font-family:Symbol;-inkscape-font-specification:Symbol;fill:#aa0000"
         id="path4198" />
    </g>
  </g>
  <g
     inkscape:groupmode="layer"
     id="layer8"
     inkscape:label="Livello 2 copia 7"
     transform="translate(0,-2560.764)">
    <text
       xml:space="preserve"
       style="font-style:normal;font-weight:normal;font-size:40px;line-height:125%;font-family:sans-serif;letter-spacing:0px;word-spacing:0px;fill:#ffffff;fill-opacity:1;stroke:none;stroke-width:1px;stroke-linecap:butt;stroke-linejoin:miter;stroke-opacity:1"
       x="2394.0615"
       y="701.01703"
       id="text4988"
       sodipodi:linespacing="125%"><tspan
         sodipodi:role="line"
         id="tspan4990"
         x="2394.0615"
         y="701.01703" /></text>
  </g>
  <g
     inkscape:groupmode="layer"
     id="layer9"
     inkscape:label="Livello 2 copia 8"
     transform="translate(0,-2560.764)" />
</svg>
